# xmcd
#
# Track frame offsets:
#	150
#	12332
#	32297
#	51765
#	63025
#	80167
#	90202
#	106025
#	118695
#	131497
#	146260
#	157992
#	175702
#
# Disc length: 2558 seconds
#
# Revision: 1
# Processed by: cddbd v1.4PL0 Copyright (c) Steve Scherf et al.
# Submitted via: audiograbber 1.81.02
#
DISCID=8f09fc0d
DTITLE=Linda Ronstadt - Blue Bayou
DYEAR=1900
DGENRE=Country
TTITLE0=Different Drum
TTITLE1=Long Long Time
TTITLE2=Love Has No Pride
TTITLE3=Silver Threads And Golden Needles
TTITLE4=You're No Good
TTITLE5=When Will I Be Loved
TTITLE6=It Doesn't Matter Anymore
TTITLE7=Heat Wave
TTITLE8=Love Is A Rose
TTITLE9=Tracks Of My Tears
TTITLE10=That'll Be The Day
TTITLE11=Blue Bayou
TTITLE12=Desperado
EXTD=
EXTT0=
EXTT1=
EXTT2=
EXTT3=
EXTT4=
EXTT5=
EXTT6=
EXTT7=
EXTT8=
EXTT9=
EXTT10=
EXTT11=
EXTT12=
PLAYORDER=
